<mxfile host="app.diagrams.net" modified="2022-04-15T11:10:41.648Z" agent="5.0 (Macintosh; Intel Mac OS X 10_15_7) AppleWebKit/537.36 (KHTML, like Gecko) Chrome/100.0.4896.88 Safari/537.36" etag="UdqmVP877QL-pmilXAvQ" version="17.4.4" type="github">
  <diagram name="Page-1" id="74b105a0-9070-1c63-61bc-23e55f88626e">
    <mxGraphModel dx="2788" dy="1546" grid="1" gridSize="10" guides="1" tooltips="1" connect="1" arrows="1" fold="1" page="1" pageScale="1.5" pageWidth="1169" pageHeight="826" background="none" math="0" shadow="0">
      <root>
        <mxCell id="0" style=";html=1;" />
        <mxCell id="1" style=";html=1;" parent="0" />
        <mxCell id="6lx4jX7zQZJk9sJQk9pc-3" value="" style="edgeStyle=orthogonalEdgeStyle;rounded=0;orthogonalLoop=1;jettySize=auto;html=1;" edge="1" parent="1" source="6lx4jX7zQZJk9sJQk9pc-1" target="6lx4jX7zQZJk9sJQk9pc-2">
          <mxGeometry relative="1" as="geometry" />
        </mxCell>
        <mxCell id="6lx4jX7zQZJk9sJQk9pc-1" value="" style="whiteSpace=wrap;html=1;aspect=fixed;" vertex="1" parent="1">
          <mxGeometry x="170" y="370" width="80" height="80" as="geometry" />
        </mxCell>
        <mxCell id="6lx4jX7zQZJk9sJQk9pc-2" value="" style="whiteSpace=wrap;html=1;aspect=fixed;" vertex="1" parent="1">
          <mxGeometry x="330" y="370" width="80" height="80" as="geometry" />
        </mxCell>
      </root>
    </mxGraphModel>
  </diagram>
</mxfile>
